<svg width="16" height="16" viewBox="0 0 16 16" fill="none" xmlns="http://www.w3.org/2000/svg">
<g clip-path="url(#clip0_7_30)">
<path d="M15.2 15.2L12 12M12 6.40005C12 7.88526 11.41 9.30964 10.3598 10.3598C9.30958 11.41 7.8852 12 6.39999 12C4.91478 12 3.49039 11.41 2.44019 10.3598C1.38999 9.30964 0.799988 7.88526 0.799988 6.40005C0.799988 4.91484 1.38999 3.49045 2.44019 2.44025C3.49039 1.39005 4.91478 0.800049 6.39999 0.800049C7.8852 0.800049 9.30958 1.39005 10.3598 2.44025C11.41 3.49045 12 4.91484 12 6.40005Z" stroke="#6B7280" stroke-width="1.6" stroke-linecap="round" stroke-linejoin="round"/>
</g>
<defs>
<clipPath id="clip0_7_30">
<path d="M0 0H16V16H0V0Z" fill="white"/>
</clipPath>
</defs>
</svg>
